<?xml version="1.0" encoding="utf-8"?>
<!-- Generator: Adobe Illustrator 16.0.0, SVG Export Plug-In . SVG Version: 6.00 Build 0)  -->
<!DOCTYPE svg PUBLIC "-//W3C//DTD SVG 1.1//EN" "http://www.w3.org/Graphics/SVG/1.1/DTD/svg11.dtd">
<svg version="1.1" id="Layer_1" xmlns="http://www.w3.org/2000/svg" xmlns:xlink="http://www.w3.org/1999/xlink" x="0px" y="0px"
	 width="563.478px" height="461.727px" viewBox="0 0 563.478 461.727" enable-background="new 0 0 563.478 461.727"
	 xml:space="preserve">
<g>
	<path fill="#FF7F00" d="M319.53,54.427c-27.738-15.678-67.536-26.532-97.687-15.678c-37.386,14.472-44.622,56.682-72.36,79.596
		C91.595,165.379,33.707,208.795,26.471,288.392c-4.824,54.271,20.502,84.421,60.3,118.188
		c32.562,26.532,53.064,48.24,98.893,51.858c68.743,6.03,144.72,3.618,213.462-6.03c50.652-7.236,102.511-43.416,126.631-88.038
		c37.387-66.33,50.652-129.043,22.914-201.403C517.315,78.547,395.509,56.839,317.118,52.015"/>
</g>
<circle fill="#D30909" cx="56.534" cy="130" r="25"/>
<circle fill="#FF7F00" cx="518.534" cy="89" r="16"/>
</svg>
